<?xml version="1.0" encoding="utf-8"?>

<svg xmlns="http://www.w3.org/2000/svg" version="1.1" width="143" height="59">

    <def>
        <style>
            
            .bigfont
            {
                font-family: consolas;
                font-size: 42pt;
                font-weight: 900;
            }
            
            .smallfont
            {
                font-family: consolas;
                font-size: 8pt;
                font-weight: 900;
            }
            
        </style>
    </def>

    <rect width="143" height="59" fill="#e0dfb0" />
    <rect x="0" y="0" width="6" height="9" fill="#c9ce87" />
    <rect x="17" y="0" width="9" height="9" fill="#c9ce87" />
    <rect x="27" y="0" width="9" height="9" fill="#c9ce87" />
    <rect x="37" y="0" width="9" height="9" fill="#c9ce87" />
    <rect x="47" y="0" width="9" height="9" fill="#c9ce87" />
    <rect x="57" y="0" width="9" height="9" fill="#c9ce87" />
    <rect x="77" y="0" width="9" height="9" fill="#c9ce87" />
    <rect x="87" y="0" width="9" height="9" fill="#c9ce87" />
    <rect x="117" y="0" width="9" height="9" fill="#c9ce87" />
    <rect x="127" y="0" width="9" height="9" fill="#c9ce87" />
    <rect x="137" y="0" width="6" height="9" fill="#c9ce87" />

    <rect x="0" y="10" width="6" height="9" fill="#c9ce87" />
    <rect x="7" y="10" width="9" height="9" fill="#c9ce87" />
    <rect x="27" y="10" width="9" height="9" fill="#817a52" />
    <rect x="67" y="10" width="9" height="9" fill="#c9ce87" />
    <rect x="127" y="10" width="9" height="9" fill="#c9ce87" />

    <rect x="0" y="20" width="6" height="9" fill="#c9ce87" />
    <rect x="7" y="20" width="9" height="9" fill="#c9ce87" />
    <rect x="17" y="20" width="9" height="9" fill="#817a52" />
    <rect x="27" y="20" width="9" height="9" fill="#dd5918" />
    <rect x="37" y="20" width="9" height="9" fill="#817a52" />
    <rect x="47" y="20" width="9" height="9" fill="#817a52" />
    <rect x="57" y="20" width="9" height="9" fill="#c9ce87" />
    <rect x="137" y="20" width="6" height="9" fill="#c9ce87" />

    <rect x="0" y="30" width="6" height="9" fill="#c9ce87" />
    <rect x="27" y="30" width="9" height="9" fill="#817a52" />
    <rect x="37" y="30" width="9" height="9" fill="#817a52" />
    <rect x="57" y="30" width="9" height="9" fill="#c9ce87" />
    <rect x="137" y="30" width="6" height="9" fill="#c9ce87" />

    <rect x="0" y="40" width="6" height="9" fill="#c9ce87" />
    <rect x="7" y="40" width="9" height="9" fill="#c9ce87" />
    <rect x="37" y="40" width="9" height="9" fill="#c9ce87" />
    <rect x="47" y="40" width="9" height="9" fill="#c9ce87" />
    <rect x="57" y="40" width="9" height="9" fill="#c9ce87" />
    <rect x="67" y="40" width="9" height="9" fill="#c9ce87" />
    <rect x="127" y="40" width="9" height="9" fill="#c9ce87" />
    <rect x="137" y="40" width="6" height="9" fill="#c9ce87" />

    <rect x="0" y="50" width="6" height="9" fill="#c9ce87" />
    <rect x="7" y="50" width="9" height="9" fill="#c9ce87" />
    <rect x="17" y="50" width="9" height="9" fill="#c9ce87" />
    <rect x="57" y="50" width="9" height="9" fill="#c9ce87" />
    <rect x="67" y="50" width="9" height="9" fill="#c9ce87" />
    <rect x="77" y="50" width="9" height="9" fill="#c9ce87" />
    <rect x="87" y="50" width="9" height="9" fill="#c9ce87" />
    <rect x="97" y="50" width="9" height="9" fill="#c9ce87" />
    <rect x="107" y="50" width="9" height="9" fill="#c9ce87" />
    <rect x="127" y="50" width="9" height="9" fill="#c9ce87" />
    <rect x="137" y="50" width="6" height="9" fill="#c9ce87" />

    <text x="70" y="42" fill="#585747" class="bigfont">eb</text>
    <text x="8" y="54" fill="#585747" class="smallfont" style="letter-spacing: 2px">ericbouchard.com</text>
    
</svg>
